<?xml version="1.0" encoding="UTF-8"?>
<svg id="b" xmlns="http://www.w3.org/2000/svg" version="1.1" viewBox="0 0 180 180">
  <!-- Generator: Adobe Illustrator 29.5.0, SVG Export Plug-In . SVG Version: 2.1.0 Build 137)  -->
  <defs>
    <style>
      .st0 {
        fill: #0040ff;
      }
    </style>
  </defs>
  <g id="c">
    <path id="d" class="st0" d="M150.1,104.4l-79.4,72.8c-2,1.8-4.6,2.8-7.2,2.8s-4.3-.6-6.1-2c-4.1-2.9-5.6-8.2-3.6-12.8l22-50.6-43.5-21.7c-3.1-1.6-5.3-4.5-5.8-8-.5-3.5.8-6.9,3.3-9.3L109.3,2.8c3.6-3.2,8.9-3.7,12.9-1.1,4.1,2.6,5.8,7.6,4.3,12.2l-16.9,51.6,38.5,21.9c2.9,1.7,4.9,4.6,5.3,8s-.9,6.7-3.4,9Z"/>
  </g>
</svg>