<?xml version="1.0" encoding="UTF-8"?>
<svg id="b" data-name="Capa 2" xmlns="http://www.w3.org/2000/svg" viewBox="0 0 300 60.33">
  <defs>
    <style>
      .m {
        fill: #fff;
      }

      .n {
        fill: #0040ff;
      }
    </style>
  </defs>
  <g id="c" data-name="Brandboard">
    <g id="d" data-name="Wordmark">
      <g id="e" data-name="Text">
        <path id="f" data-name="F" class="m" d="M0,54.01V.22h40.65v9.99H12.53v43.8H0ZM11.53,34.41v-9.99h25.82v9.99H11.53Z"/>
        <path id="g" data-name="o" class="m" d="M66.78,54.62c-12.23.27-22.83-8.82-22.59-21.29,0-4.15.97-7.82,2.92-11.03,8-13.73,31.49-13.67,39.5,0,1.95,3.2,2.92,6.88,2.92,11.03.26,12.59-10.44,21.54-22.74,21.28ZM66.78,44.79c9.27.22,12.96-10.3,9.18-17.6-3.59-6.98-14.68-6.94-18.29,0-3.76,7.31-.11,17.72,9.11,17.6Z"/>
        <path id="h" data-name="c" class="m" d="M117.49,54.62c-12.43.28-23.17-8.58-22.98-21.29,0-4.15.99-7.81,2.96-10.99,4.23-6.78,11.76-10.36,20.02-10.3,7.92-.03,15.34,3.24,18.44,10.45l-9.22,5.07c-5.65-10.02-20.55-5.86-20.13,5.76-.04,4.35,1.76,8.09,5.38,10.1,5.15,2.8,11.96,1.22,14.75-4.34l9.22,5.07c-3.12,7.12-10.55,10.49-18.44,10.45Z"/>
        <path id="i" data-name="u" class="m" d="M160.37,54.62c-11.34.08-17.86-7.14-17.67-18.6,0,0,0-23.36,0-23.36h11.99v21.52c-.01,6.22,2.34,9.98,8.38,10.07,6.18.12,9.8-4.97,9.61-11.07,0,0,0-20.52,0-20.52h11.91v41.34h-11.37v-11.45l2.07,3.38c-2.79,5.76-8.67,8.69-14.91,8.68Z"/>
        <path id="j" data-name="A" class="m" d="M232.36,54.23L257.31,0h3.95l24.95,54.23h-4.26l-23.55-51.76h1.7l-23.48,51.76h-4.26ZM241.51,38.97l1.32-3.33h32.46l1.32,3.33h-35.1Z"/>
        <path id="k" data-name="I" class="m" d="M296.05,54.23V0h3.95v54.23h-3.95Z"/>
      </g>
      <path id="l" data-name="Logo" class="n" d="M228.3,37.69l-23.79,21.81c-.6.55-1.37.83-2.14.83-.64,0-1.29-.19-1.84-.59-1.22-.87-1.67-2.47-1.07-3.84l6.58-15.17-13.02-6.51c-.94-.47-1.58-1.36-1.72-2.4-.15-1.03.23-2.07,1-2.78l23.79-21.81c1.07-.97,2.65-1.11,3.86-.33,1.21.78,1.74,2.28,1.29,3.65l-5.06,15.46,11.55,6.57c.88.5,1.47,1.39,1.58,2.4s-.26,2.01-1.01,2.69Z"/>
    </g>
  </g>
</svg>